<?xml version="1.0" encoding="iso-8859-1"?>
<!-- Generator: Adobe Illustrator 19.0.0, SVG Export Plug-In . SVG Version: 6.00 Build 0)  -->
<svg version="1.1" id="Capa_1" xmlns="http://www.w3.org/2000/svg" xmlns:xlink="http://www.w3.org/1999/xlink" x="0px" y="0px"
	 viewBox="0 0 512 512" style="enable-background:new 0 0 512 512;" xml:space="preserve">
<g>
	<g>
		<polygon points="31.562,15.029 31.562,0 0,0 0,512 31.562,512 31.562,496.971 15.029,496.971 15.029,263.515 31.562,263.515 
			31.562,248.485 15.029,248.485 15.029,15.029 		"/>
	</g>
</g>
<g>
	<g>
		<polygon points="480.438,0 480.438,15.029 496.971,15.029 496.971,248.485 480.438,248.485 480.438,263.515 496.971,263.515 
			496.971,496.971 480.438,496.971 480.438,512 512,512 512,0 		"/>
	</g>
</g>
<g>
	<g>
		<path d="M48.094,40.078v87.671h15.029V55.108h9.018v281.55h-9.018V143.781H48.094v207.906h111.217v-39.076H87.17V183.358h25.049
			v28.556c0,10.773,8.765,19.538,19.538,19.538h72.141c10.773,0,19.538-8.765,19.538-19.538v-28.556h25.049v32.564h15.029v-16.532
			h56.611V184.36h-56.611v-16.031H87.17v-25.446c33.512-3.51,60.22-30.217,63.729-63.728h57.507v48.595h15.029V79.155h17.033v32.564
			c0,8.564,6.967,15.53,15.53,15.53h64.125c8.564,0,15.53-6.967,15.53-15.53V79.155h89.174v49.096h-51.707l-12.418,12.418v59.222
			h15.029v-52.997l3.613-3.613h45.483v97.19h-107.71c-6.906,0-12.524,5.618-12.524,12.524v59.616h-41.08V256h-15.029v56.611h-24.047
			v39.076h24.047v88.172h151.796V424.83H263.515v-73.143h185.362v73.143h-32.564v15.029h47.593V40.078H48.094z M144.282,327.64
			v9.018H87.17v-9.018H144.282z M127.249,183.358h81.159v28.556c0,2.486-2.023,4.509-4.509,4.509h-72.141
			c-2.486,0-4.509-2.023-4.509-4.509V183.358z M383.75,255.499h9.018v57.112h-9.018V255.499z M319.624,255.499h49.096v57.112
			h-49.096V255.499z M424.83,336.658H248.485h-9.018v-9.018H424.83V336.658z M424.83,312.611h-17.033v-57.112h17.033V312.611z
			 M87.17,127.754V79.155h48.599C132.411,104.371,112.386,124.394,87.17,127.754z M320.626,111.718c0,0.276-0.224,0.501-0.501,0.501
			H256c-0.277,0-0.501-0.225-0.501-0.501V79.155h65.127V111.718z M424.83,64.125H87.17v-9.018h337.66V64.125z M448.877,336.658
			h-9.018V55.108h9.018V336.658z"/>
	</g>
</g>
<g>
	<g>
		<path d="M87.671,368.72c-21.823,0-39.577,17.755-39.577,39.577c0,21.823,17.755,39.577,39.577,39.577
			c21.823,0,39.577-17.755,39.577-39.577C127.249,386.475,109.494,368.72,87.671,368.72z M87.671,432.845
			c-13.535,0-24.548-11.011-24.548-24.548c0-13.536,11.013-24.548,24.548-24.548c13.535,0,24.548,11.011,24.548,24.548
			C112.219,421.834,101.207,432.845,87.671,432.845z"/>
	</g>
</g>
<g>
	<g>
		<path d="M191.875,368.72c-21.823,0-39.577,17.755-39.577,39.577c0,21.823,17.755,39.577,39.577,39.577
			s39.577-17.755,39.577-39.577C231.452,386.475,213.697,368.72,191.875,368.72z M191.875,432.845
			c-13.535,0-24.548-11.011-24.548-24.548c0-13.536,11.013-24.548,24.548-24.548s24.548,11.011,24.548,24.548
			C216.423,421.834,205.41,432.845,191.875,432.845z"/>
	</g>
</g>
<g>
	<g>
		<rect x="416.313" y="392.767" width="16.031" height="15.029"/>
	</g>
</g>
<g>
	<g>
		<rect x="384.25" y="392.767" width="16.031" height="15.029"/>
	</g>
</g>
<g>
	<g>
		<rect x="352.188" y="392.767" width="16.031" height="15.029"/>
	</g>
</g>
<g>
	<g>
		<rect x="191.875" y="472.924" width="128.25" height="15.029"/>
	</g>
</g>
<g>
	<g>
		<rect x="344.172" y="472.924" width="32.063" height="15.029"/>
	</g>
</g>
<g>
	<g>
		<rect x="135.765" y="472.924" width="32.063" height="15.029"/>
	</g>
</g>
<g>
</g>
<g>
</g>
<g>
</g>
<g>
</g>
<g>
</g>
<g>
</g>
<g>
</g>
<g>
</g>
<g>
</g>
<g>
</g>
<g>
</g>
<g>
</g>
<g>
</g>
<g>
</g>
<g>
</g>
</svg>
