<svg height="480pt" viewBox="0 0 480 480.15221" width="480pt" xmlns="http://www.w3.org/2000/svg"><path d="m.0742188 0v473.28125l3.7812502 2.351562c4.808593 3.035157 10.394531 4.605469 16.078125 4.515626h.171875c8.8125-.0625 17.21875-3.71875 23.273437-10.117188 3.140625-3.753906 7.757813-5.953125 12.648438-6.03125h.101562c4.867188.066406 9.464844 2.222656 12.625 5.921875 6.074219 6.304687 14.441406 9.886719 23.195313 9.921875h.164062c5.753907.078125 11.398438-1.539062 16.234375-4.648438l3.726563-2.359374v-40.835938h256v40.835938l3.726562 2.359374c4.835938 3.105469 10.480469 4.722657 16.226563 4.648438h.15625c8.761718-.035156 17.132812-3.617188 23.210937-9.921875 3.160157-3.695313 7.757813-5.855469 12.617188-5.921875h.101562c4.894531.078125 9.515625 2.277344 12.65625 6.03125 6.054688 6.398438 14.457031 10.050781 23.265625 10.117188h.171875c5.6875.09375 11.277344-1.476563 16.085938-4.515626l3.78125-2.351562v-473.28125zm416.0000002 287.59375v17.046875c-27.515625 3.988281-47.945313 27.554687-48 55.359375v24h-104v-336h40v120c.101562 63.105469 49.039062 115.359375 112 119.59375zm-352 0c62.964843-4.234375 111.902343-56.488281 112-119.59375v-120h40v242.707031l-41.976563-47.972656-12.046875 10.53125 54.023438 61.742187v23.375l-33.929688-39.585937-12.140625 10.40625 46.070313 53.75v21.046875h-104v-24c-.050781-27.804688-20.480469-51.371094-48-55.359375zm168-239.59375h16v336h-16zm-56-32h128v16h-128zm-160 0h144v30.515625l-.097657.066406c-1.507812.910157-2.921874 1.84375-4.308593 2.761719-11.554688 8.875-27.636719 8.875-39.195313 0-8.175781-6.199219-18.191406-9.488281-28.453125-9.34375-10.25-.144531-20.257812 3.144531-28.429687 9.34375-5.535156 4.445312-12.460938 6.800781-19.5625 6.65625-7.101563.144531-14.03125-2.210938-19.578125-6.65625-1.378907-.917969-2.789063-1.851562-4.292969-2.761719l-.082031-.050781zm0 49.546875.167969.089844c1.226562.726562 2.546874 1.433593 3.953124 2.109375.304688.144531.621094.277344.929688.417968 1.425781.644532 2.882812 1.207032 4.371094 1.683594.203125.066406.382812.144532.59375.207032 1.832031.539062 3.703125.960937 5.59375 1.253906.472656.078125.957031.140625 1.445312.207031 2.289063.3125 4.59375.476563 6.898438.484375 10.257812.144531 20.269531-3.144531 28.4375-9.34375 5.535156-4.445312 12.460937-6.800781 19.554687-6.65625 7.105469-.148438 14.035157 2.207031 19.578125 6.65625 8.179688 6.199219 18.195313 9.488281 28.453125 9.34375 2.320313-.007812 4.636719-.171875 6.929688-.488281.484375-.0625.96875-.125 1.433593-.203125 1.898438-.296875 3.773438-.714844 5.617188-1.261719.210938-.0625.398438-.140625.605469-.207031 1.496093-.484375 2.957031-1.046875 4.386719-1.695313.300781-.136719.609374-.261719.902343-.402343 1.417969-.679688 2.746094-1.394532 3.984375-2.128907l.164063-.089843v102.476562c-.066407 45.917969-30.199219 86.375-74.171875 99.589844 13.183594-15.167969 26.171875-40.917969 26.171875-83.589844h-16c0 67.234375-34.933594 85.207031-41.519531 88h-38.480469zm0 222.453125h32v16h-32zm21.847656 32c5.617187 3.554688 26.152344 19.066406 26.152344 56h16c.6875-20.015625-5.707031-39.632812-18.058594-55.398438 19.53125 2.910157 34.003906 19.652344 34.058594 39.398438v55.621094c-.183594.050781-.382813.09375-.582031.136718-.4375.089844-.875.183594-1.371094.242188-.199219.023438-.433594.027344-.644532.046875-.515624.042969-1.042968.089844-1.519531.101563-4.863281-.066407-9.460937-2.222657-12.625-5.921876-6.132812-6.320312-14.558593-9.894531-23.367187-9.921874-8.808594.066406-17.210938 3.71875-23.265625 10.117187-3.144531 3.753906-7.765625 5.953125-12.664063 6.03125-.035156.003906-.0625-.003906-.097656 0-1.300781.011719-2.597656-.136719-3.863281-.445313v-96.007812zm58.152344 143.351562c-1.351563.300782-2.730469.464844-4.117188.492188-4.863281-.066406-9.460937-2.222656-12.625-5.921875-6.074219-6.308594-14.449219-9.886719-23.210937-9.921875h-.15625c-8.808594.066406-17.210938 3.71875-23.265625 10.117188-3.144531 3.753906-7.765625 5.953124-12.664063 6.03125h-.085937c-1.304688.015624-2.605469-.136719-3.875-.445313v-31.460937c.972656.109374 2 .132812 2.996093.15625.296876.007812.566407.054687.863282.054687h.171875c8.8125-.0625 17.21875-3.71875 23.273437-10.117187 3.140625-3.753907 7.757813-5.953126 12.648438-6.03125h.101562c4.867188.066406 9.464844 2.222656 12.625 5.921874 1.191406 1.050782 2.488282 2.195313 3.957032 3.320313 5.449218 4.375 12.253906 6.710937 19.238281 6.601563h.164062c.332031 0 .632813-.054688.957031-.0625 1.011719-.042969 2.035157-.058594 3.003907-.171876zm16-63.351562h256v16h-256zm352 63.703125c-1.101563.28125-2.40625.203125-3.96875.445313-4.890625-.078126-9.511719-2.28125-12.652344-6.03125-6.058594-6.398438-14.464844-10.054688-23.277344-10.117188h-.15625c-8.753906.035156-17.125 3.609375-23.203125 9.914062-3.160156 3.707032-7.765625 5.867188-12.640625 5.929688-1.375-.078125-2.746093-.242188-4.101562-.492188v-31.4375c1.292969.148438 2.589843.226563 3.886719.230469l.066406.003907h.15625l.210937-.011719c8.710938.03125 17.042969-3.554688 23-9.910157 3.160157-3.695312 7.757813-5.855468 12.617188-5.921874h.101562c4.894531.078124 9.515625 2.277343 12.65625 6.03125 6.054688 6.398437 14.457031 10.050781 23.265625 10.117187h.171875l.042969-.003906c1.277344.03125 2.558594-.039063 3.824219-.207031zm0-47.734375-.339844.078125c-1.1875.269531-2.40625.40625-3.628906.40625-4.890625-.078125-9.511719-2.28125-12.652344-6.03125-6.058594-6.398437-14.464844-10.054687-23.273437-10.117187h-.15625l-.226563.015624c-8.707031-.050781-17.035156 3.535157-22.976563 9.898438-1.011718.894531-1.941406 1.710938-2.851562 2.433594-2.707031 2.359375-6.203125 3.609375-9.789062 3.496094-.285157-.007813-.5-.035157-.761719-.046876-.566407-.023437-1.117188-.050781-1.609375-.117187-.355469-.042969-.664063-.121094-.984375-.1875-.257813-.050781-.507813-.109375-.746094-.175781v-55.621094c.054687-19.746094 14.527344-36.488281 34.058594-39.398438-12.351563 15.765626-18.746094 35.382813-18.0625 55.398438h16c0-36.882812 20.363281-52.355469 26.144531-56h21.855469zm0-111.96875h-32v-16h32zm-38.472657-32c-6.203124-2.652344-41.527343-20.703125-41.527343-88h-16c0 42.671875 12.992187 68.421875 26.175781 83.589844-43.976562-13.214844-74.105469-53.671875-74.175781-99.589844v-102.476562l.171875.089843c1.234375.734375 2.5625 1.449219 3.980468 2.128907.292969.140624.601563.265624.902344.402343 1.429688.648438 2.894532 1.210938 4.386719 1.695313.207031.066406.394531.144531.605469.207031 1.84375.542969 3.71875.964844 5.617187 1.261719.464844.078125.949219.140625 1.433594.203125 2.296875.316406 4.609375.480469 6.925781.488281 10.261719.144531 20.277344-3.144531 28.453125-9.34375 11.535157-8.875 27.601563-8.875 39.132813 0 8.171875 6.199219 18.183594 9.488281 28.4375 9.34375 2.308594-.007812 4.613281-.167969 6.902344-.484375.488281-.0625.976562-.128906 1.445312-.203125 1.890625-.296875 3.761719-.714844 5.59375-1.257812.210938-.0625.390625-.140626.59375-.207032 1.488281-.476562 2.945312-1.039062 4.367188-1.679687.3125-.144531.632812-.277344.933593-.421875 1.410157-.675782 2.726563-1.382813 3.953125-2.109375l.164063-.089844v206.453125zm38.472657-256v30.53125l-.078125.050781c-1.503906.910157-2.914063 1.84375-4.296875 2.761719-11.535157 8.875-27.601563 8.875-39.140625 0-16.914063-12.457031-39.964844-12.457031-56.882813 0-11.554687 8.875-27.636719 8.875-39.195312 0-1.382813-.917969-2.796875-1.851562-4.304688-2.761719l-.101562-.066406v-30.515625zm0 0"/></svg>