<svg height="512" viewBox="0 0 64 64" width="512" xmlns="http://www.w3.org/2000/svg"><g id="Layer_31" data-name="Layer 31"><path d="m62 55h-2v-24h2a1 1 0 0 0 .916-1.4l-7-16a1 1 0 0 0 -.916-.6h-1v-9a1 1 0 0 0 -1-1h-6a1 1 0 0 0 -1 1v9h-37a1 1 0 0 0 -.916.6l-7 16a1 1 0 0 0 .916 1.4h2v24h-2a1 1 0 0 0 -1 1v4a1 1 0 0 0 1 1h60a1 1 0 0 0 1-1v-4a1 1 0 0 0 -1-1zm-10-50v2h-4v-2zm-4 4h4v4h-4zm-38.346 6h44.692l6.125 14h-56.942zm-3.654 16h52v24h-18v-18a1 1 0 0 0 -1-1h-14a1 1 0 0 0 -1 1v18h-18zm32 24h-12v-17h12zm23 4h-58v-2h58z"/><path d="m21 36h-12a1 1 0 0 0 -1 1v12a1 1 0 0 0 1 1h12a1 1 0 0 0 1-1v-12a1 1 0 0 0 -1-1zm-1 6h-4v-4h4zm-6-4v4h-4v-4zm-4 6h4v4h-4zm6 4v-4h4v4z"/><path d="m43 50h12a1 1 0 0 0 1-1v-12a1 1 0 0 0 -1-1h-12a1 1 0 0 0 -1 1v12a1 1 0 0 0 1 1zm1-6h4v4h-4zm6 4v-4h4v4zm4-6h-4v-4h4zm-6-4v4h-4v-4z"/><path d="m28 44h2v2h-2z"/></g></svg>