<svg id="Capa_1" enable-background="new 0 0 512 512" height="512" viewBox="0 0 512 512" width="512" xmlns="http://www.w3.org/2000/svg"><g><path d="m466 318c9.649 0 17.5-7.851 17.5-17.5v-283c0-9.649-7.851-17.5-17.5-17.5h-420c-9.649 0-17.5 7.851-17.5 17.5v283c0 9.649 7.851 17.5 17.5 17.5h21.5v15h-21.5c-9.649 0-17.5 7.851-17.5 17.5v99.895c0 4.143 3.358 7.5 7.5 7.5s7.5-3.357 7.5-7.5v-99.895c0-1.379 1.122-2.5 2.5-2.5h21.5v7.5c0 12.406 10.093 22.5 22.5 22.5h21.5v15h-21.5c-12.407 0-22.5 10.094-22.5 22.5s10.093 22.5 22.5 22.5h18.683l-19.135 59h-43.548c-1.378 0-2.5-1.121-2.5-2.5v-9.105c0-4.143-3.358-7.5-7.5-7.5s-7.5 3.357-7.5 7.5v9.105c0 9.649 7.851 17.5 17.5 17.5h420c9.649 0 17.5-7.851 17.5-17.5v-144c0-9.649-7.851-17.5-17.5-17.5h-241.5v-15zm-420-15c-1.378 0-2.5-1.121-2.5-2.5v-283c0-1.379 1.122-2.5 2.5-2.5h420c1.378 0 2.5 1.121 2.5 2.5v283c0 1.379-1.122 2.5-2.5 2.5h-241.5v-7.5c0-2.629-.458-5.153-1.29-7.5h217.79c6.893 0 12.5-5.607 12.5-12.5v-233c0-6.893-5.607-12.5-12.5-12.5h-18.726c-4.142 0-7.5 3.357-7.5 7.5s3.358 7.5 7.5 7.5h16.226v3.863l-224.137 224.137h-140.863v-6.213l221.787-221.787h91.987c4.142 0 7.5-3.357 7.5-7.5s-3.358-7.5-7.5-7.5h-316.274c-6.893 0-12.5 5.607-12.5 12.5v233c0 6.161 4.484 11.282 10.357 12.303-.877 2.403-1.357 4.995-1.357 7.697v7.5zm392.5-98.567-68.566 68.567h-70.717l139.283-139.283zm0 21.214v47.353h-47.353zm0-113.144-160.497 160.497h-42.426l202.923-202.923zm-365 90.644 158.147-158.147h42.426l-200.573 200.573zm0-21.214v-76.366l60.567-60.567h76.366zm0-97.58v-39.353h39.353zm9 271.147v-60c0-4.136 3.364-7.5 7.5-7.5h112c4.136 0 7.5 3.364 7.5 7.5v60c0 4.136-3.364 7.5-7.5 7.5h-112c-4.136 0-7.5-3.364-7.5-7.5zm44 22.5h39v15h-39zm-44 37.5c0-4.136 3.364-7.5 7.5-7.5h112c4.136 0 7.5 3.364 7.5 7.5s-3.364 7.5-7.5 7.5h-29-54-29c-4.136 0-7.5-3.364-7.5-7.5zm22.817 81.5 19.135-59h43.096l19.135 59zm363.183-146.5v144c0 1.379-1.122 2.5-2.5 2.5h-202.5v-149h202.5c1.378 0 2.5 1.121 2.5 2.5zm-220-2.5v149h-46.048l-19.135-59h18.683c12.407 0 22.5-10.094 22.5-22.5s-10.093-22.5-22.5-22.5h-21.5v-15h21.5c12.407 0 22.5-10.094 22.5-22.5v-7.5z"/><path d="m291 482h150c6.893 0 12.5-5.607 12.5-12.5v-27c0-6.893-5.607-12.5-12.5-12.5h-150c-6.893 0-12.5 5.607-12.5 12.5v27c0 6.893 5.607 12.5 12.5 12.5zm2.5-37h145v22h-145z"/><path d="m291 415h150c6.893 0 12.5-5.607 12.5-12.5v-27c0-6.893-5.607-12.5-12.5-12.5h-150c-6.893 0-12.5 5.607-12.5 12.5v27c0 6.893 5.607 12.5 12.5 12.5zm2.5-37h145v22h-145z"/></g></svg>