<?xml version="1.0" encoding="UTF-8"?>
<svg xmlns="http://www.w3.org/2000/svg" viewBox="0 0 64 64" width="512" height="512"><g id="Outline"><path d="M61,18a1,1,0,0,0,1-1V7a5.006,5.006,0,0,0-5-5H53a1,1,0,0,0-1,1V6H15a1,1,0,0,0-1,1V42H7a3,3,0,0,1,0-6h4a1,1,0,0,0,1-1V24a1,1,0,0,0-2,0V34H7a4.98,4.98,0,0,0-3,1V7A3,3,0,0,1,7,4h3V20a1,1,0,0,0,2,0V3a1,1,0,0,0-1-1H7A5.006,5.006,0,0,0,2,7V39a5.006,5.006,0,0,0,5,5H18a1,1,0,0,0,0-2H16V37h3a1,1,0,0,0,1-1V30a1,1,0,0,0-1-1H16V24h4a1,1,0,0,0,0-2H16V8h2v3a1,1,0,0,0,1,1v2a4,4,0,0,0,8,0V12a1,1,0,0,0,1-1V8h2V22H26a1,1,0,0,0-.8.4l-3,4a1,1,0,1,0,1.6,1.2L26.5,24H31a1,1,0,0,0,1-1V8H48v2H37a1,1,0,0,0-1,1V27a1,1,0,0,0,1,1H48v4a1,1,0,0,0,2,0V8h2V35a1,1,0,0,0,1,1h4a3,3,0,0,1,0,6H50V39a1,1,0,0,0-.375-.781l-5-4a1,1,0,0,0-1.25,1.562L48,39.48V42H40.816A2.966,2.966,0,0,0,41,41V39a1,1,0,0,0-1-1H24a1,1,0,0,0-1,1v2a2.966,2.966,0,0,0,.184,1H22a1,1,0,0,0,0,2H57a5.006,5.006,0,0,0,5-5V21a1,1,0,0,0-2,0V35a4.98,4.98,0,0,0-3-1H54V4h3a3,3,0,0,1,3,3V17A1,1,0,0,0,61,18ZM18,31v4H16V31Zm7-17a2,2,0,0,1-4,0V12h4Zm1-4H20V8h6Zm12,2H48v2H38Zm0,14V16H48V26ZM26,42a1,1,0,0,1-1-1V40H39v1a1,1,0,0,1-1,1Z"/><path d="M36,32a4,4,0,1,0-4,4A4,4,0,0,0,36,32Zm-6,0a2,2,0,1,1,2,2A2,2,0,0,1,30,32Z"/><path d="M53,46H26a1,1,0,0,0-.283.041l-6,1.77a1,1,0,0,0-.066,1.9l6,2.231A1.015,1.015,0,0,0,26,52H39a1,1,0,0,0,0-2H27V48H46v2H43a1,1,0,0,0,0,2H53a3,3,0,0,0,0-6ZM25,48.338v1.223l-1.836-.682ZM48,48h2v2H48Zm5,2H52V48h1a1,1,0,0,1,0,2Z"/><path d="M55,54H3a1,1,0,0,0-1,1v6a1,1,0,0,0,1,1H35a1,1,0,0,0,0-2H4V56H6v1a1,1,0,0,0,2,0V56h2v1a1,1,0,0,0,2,0V56h2v1a1,1,0,0,0,2,0V56h2v1a1,1,0,0,0,2,0V56h2v1a1,1,0,0,0,2,0V56h2v1a1,1,0,0,0,2,0V56h2v1a1,1,0,0,0,2,0V56h2v1a1,1,0,0,0,2,0V56h2v1a1,1,0,0,0,2,0V56h2v1a1,1,0,0,0,2,0V56h2v1a1,1,0,0,0,2,0V56h2v1a1,1,0,0,0,2,0V56h2v4H39a1,1,0,0,0,0,2H55a1,1,0,0,0,1-1V55A1,1,0,0,0,55,54Z"/></g></svg>
