<svg height="512" viewBox="0 0 64 64" width="512" xmlns="http://www.w3.org/2000/svg"><g id="Design"><path d="m60 12.75h-16v-2a1 1 0 0 0 -1-1h-14.08a1 1 0 0 0 -1 1v2h-12a6.49 6.49 0 0 0 -12.92 1v36.5a6.56 6.56 0 0 0 6.75 6.5h50.25a1 1 0 0 0 1-1v-42a1 1 0 0 0 -1-1zm-30.08-1h12.08v12.08h-4.22a8.93 8.93 0 0 0 -7.86-7.83zm0 6.24a6.93 6.93 0 0 1 5.84 5.84h-5.84zm-1 7.84h6.84a6.92 6.92 0 1 1 -7.84-7.83v6.84a1 1 0 0 0 1 .99zm-23.92-12.08a4.5 4.5 0 0 1 9 0v31.81a6.5 6.5 0 0 0 -9 0zm54 22h-2a1 1 0 0 0 0 2h2v3h-2a1 1 0 0 0 0 2h2v3h-2a1 1 0 0 0 0 2h2v3h-2a1 1 0 0 0 0 2h2v2h-23.59l23.59-23.59zm0-7.42-26.41 26.42h-22.84a4.59 4.59 0 0 1 -4.75-4.5 4.5 4.5 0 0 1 9 0 1 1 0 0 0 2 0v-35.5h11.92v1.25a8.92 8.92 0 1 0 9.86 9.86h5.22a1 1 0 0 0 1-1v-10.11h15z"/><path d="m46.08 50.13a1 1 0 0 0 .92.62h7a1 1 0 0 0 1-1v-7a1 1 0 0 0 -1.71-.75l-7 7a1 1 0 0 0 -.21 1.13zm6.92-5v3.59h-3.59z"/><path d="m30.58 42.05 6.42-6.41a1 1 0 0 0 0-1.41 1 1 0 0 0 -1.42 0l-7.11 7.12a1 1 0 0 0 0 1.41l1.81 1.81-1 1a1 1 0 0 0 0 1.41l3.5 3.5a1 1 0 0 0 .7.3 1 1 0 0 0 .71-.3l15.51-15.48a1.17 1.17 0 0 0 .19-.3c.1-.21.3-1.18 1.15-4.76a1 1 0 0 0 -1.2-1.2c-4.07 1-4.56 1.05-4.77 1.15a1.32 1.32 0 0 0 -.29.19l-13.1 13.1zm18.14-11.05-.29 1.26-1-1zm-3.23 1.15 2.09 2.09-10.52 10.54-2.06-2.09zm-9.85 14-2.21 2.25-2.08-2.09 2.21-2.2z"/><path d="m26 36.75h-6a1 1 0 0 0 -1 1v13a1 1 0 0 0 1 1h6a1 1 0 0 0 1-1v-13a1 1 0 0 0 -1-1zm-1 13h-4v-11h4z"/></g></svg>