<svg enable-background="new 0 0 512 512" height="512" viewBox="0 0 512 512" width="512" xmlns="http://www.w3.org/2000/svg"><g id="_x30_1_Interior_Design"><g><path d="m441.582 91.549c-.04 0-.04 0-.08 0h-257.452l64.093-64.133c10.076-10.076 2.959-27.308-11.315-27.308h-219.147c-8.796 0-15.993 7.157-15.993 15.993v219.227c0 14.234 17.233 21.391 27.308 11.315l73.929-73.969v273.326h-31.587c-8.796 0-15.993 7.197-15.993 15.993v12.155c0 19.512 16.113 35.425 35.905 35.425h286.559c19.791 0 35.865-15.913 35.865-35.425v-306.511h47.66c8.836 0 15.993-7.157 15.993-15.993v-24.71c-.001-19.471-16.034-35.345-35.745-35.385zm-418.224 149.417c-5.078 5.078-13.674 1.519-13.674-5.638v-11.435h14.154c2.239 0 3.998-1.799 3.998-3.998 0-2.239-1.759-3.998-3.998-3.998h-14.154v-20.591h14.154c2.239 0 3.998-1.799 3.998-3.998s-1.759-3.998-3.998-3.998h-14.154v-20.551h14.154c2.239 0 3.998-1.799 3.998-3.998 0-2.239-1.759-3.998-3.998-3.998h-14.154v-20.593h14.154c2.239 0 3.998-1.799 3.998-3.998s-1.759-3.998-3.998-3.998h-14.154v-20.551h14.154c2.239 0 3.998-1.799 3.998-3.998 0-2.239-1.759-3.998-3.998-3.998h-14.154v-20.593h14.154c2.239 0 3.998-1.799 3.998-3.998s-1.759-3.998-3.998-3.998h-14.154v-20.552h14.154c2.239 0 3.998-1.799 3.998-3.998s-1.759-3.998-3.998-3.998h-14.154v-28.389c0-4.398 3.598-7.997 7.997-7.997h19.152v14.154c0 2.199 1.799 3.998 3.998 3.998 2.239 0 3.998-1.799 3.998-3.998v-14.153h20.591v14.154c0 2.199 1.799 3.998 3.998 3.998s3.998-1.799 3.998-3.998v-14.154h20.551v14.154c0 2.199 1.799 3.998 3.998 3.998s3.998-1.799 3.998-3.998v-14.154h20.591v14.154c0 2.199 1.759 3.998 3.998 3.998 2.199 0 3.998-1.799 3.998-3.998v-14.154h20.551v14.154c0 2.199 1.799 3.998 3.998 3.998s3.998-1.799 3.998-3.998v-14.154h20.591v14.154c0 2.199 1.759 3.998 3.998 3.998 2.199 0 3.998-1.799 3.998-3.998v-14.154h20.551v14.154c0 2.199 1.799 3.998 3.998 3.998s3.998-1.799 3.998-3.998v-14.154h20.591c7.157 0 10.715 8.596 5.678 13.634zm382.319-114.072v347.253c0 15.073-12.515 27.668-28.308 27.388-17.753-1.28-27.388-14.194-27.388-27.388v-12.155c0-8.796-7.157-15.993-15.993-15.993h-223.067v-281.321l65.132-65.132h242.777c-7.755 6.237-13.153 16.433-13.153 27.348z"/><path d="m338.11 142.31h-159.622c-11.716 0-21.247 9.533-21.247 21.249v26.192c0 2.208 1.79 3.998 3.998 3.998s3.998-1.79 3.998-3.998v-26.192c0-7.307 5.945-13.252 13.25-13.252h75.814v17.022c0 2.208 1.79 3.998 3.998 3.998s3.998-1.79 3.998-3.998v-17.022h75.812c7.307 0 13.252 5.945 13.252 13.252v99.969h-89.064v-69.572c0-2.208-1.79-3.998-3.998-3.998s-3.998 1.79-3.998 3.998v69.572h-89.064v-26.832c0-2.208-1.79-3.998-3.998-3.998s-3.998 1.79-3.998 3.998v145.31c0 11.716 9.531 21.247 21.247 21.247h159.622c11.716 0 21.249-9.531 21.249-21.247v-17.085c0-1.187-.527-2.312-1.439-3.071l-35.842-29.884c-1.693-1.415-4.219-1.187-5.63.511-1.413 1.695-1.185 4.217.512 5.63l34.403 28.685v15.212c0 7.306-5.945 13.25-13.252 13.25h-105.646v-17.723c0-2.208-1.79-3.998-3.998-3.998s-3.998 1.79-3.998 3.998v17.723h-45.981c-7.306 0-13.25-5.945-13.25-13.25v-63.534h20.372c2.208 0 3.998-1.79 3.998-3.998s-1.79-3.998-3.998-3.998h-20.372v-38.948h59.231v38.948h-16.243c-2.208 0-3.998 1.79-3.998 3.998s1.79 3.998 3.998 3.998h16.243v32.437c0 2.208 1.79 3.998 3.998 3.998s3.998-1.79 3.998-3.998v-79.382h118.897v49.253c0 2.208 1.79 3.998 3.998 3.998s3.998-1.79 3.998-3.998v-157.219c.001-11.716-9.532-21.249-21.248-21.249z"/><path d="m509.833 245.684-19.552-35.945c-3.878-7.157-14.194-7.157-18.072 0-20.431 37.664-19.432 35.665-19.752 36.465-.28.76-.24 1-.28 1.399 0 .48 0 235.66 0 235.221 0 16.033 13.035 29.068 29.068 29.068s29.068-13.035 29.068-29.068v-235.221c0-.399-.24-1.479-.48-1.919zm-38.744-17.112h20.311l8.196 15.033h-36.704zm31.227 215.629h-42.142v-192.599h42.142z"/><path d="m156.102 53.525-100.957 100.958c-1.16 1.159-2.879 1.519-4.358.88-1.519-.6-2.479-2.079-2.479-3.678v-100.958c0-2.239 1.799-3.998 3.998-3.998h100.957c1.639 0 3.079.96 3.718 2.439.601 1.519.241 3.238-.879 4.357z"/></g></g></svg>