<?xml version="1.0" encoding="UTF-8"?>
<svg xmlns="http://www.w3.org/2000/svg" id="Layer_1" data-name="Layer 1" viewBox="0 0 512 512" width="512" height="512"><path d="M446.546,86H415.418A6.537,6.537,0,0,0,409,92.193V136H374v-7h13.062a5.7,5.7,0,0,0,5.46-8.159L354.554,37.592A6.075,6.075,0,0,0,349.094,34H90.906a6.074,6.074,0,0,0-5.46,3.592L47.478,120.963a5.565,5.565,0,0,0,.414,5.509A5.8,5.8,0,0,0,52.938,129H66v7H17a6.065,6.065,0,0,0-6,6.075V471.841a6.185,6.185,0,0,0,1.762,4.327A6.076,6.076,0,0,0,17,478h.014l426.262-1.081A58.1,58.1,0,0,0,501,418.9V140.669A54.692,54.692,0,0,0,446.546,86ZM62.265,117l32.5-71H345.234l32.5,71H279.309L224.083,65.973a6,6,0,0,0-8.166-.123L160.691,117ZM443.243,464.848,23,465.827V148H66v16a6,6,0,0,0,12,0V129h85.047a5.784,5.784,0,0,0,4.082-1.358L220,78.68l52.871,48.9A5.835,5.835,0,0,0,276.953,129H362V238H78V206a6,6,0,0,0-12,0V369.189A5.811,5.811,0,0,0,71.811,375H368.189A5.811,5.811,0,0,0,374,369.189V148h35V366.967c0,3.313,3.1,6.033,6.418,6.033h27.668a45.924,45.924,0,0,1,.157,91.848ZM262.669,265H176.555A9.557,9.557,0,0,0,167,274.742V363H78V250H362V363H272V274.742C272,269.34,268.071,265,262.669,265ZM260,277v86H179V277ZM489,383.629A57.818,57.818,0,0,0,443.086,361H421V98h25.546A42.679,42.679,0,0,1,489,140.669Z"/><path d="M48,186.916a6,6,0,0,0-6,6V304.671a6,6,0,0,0,12,0V192.916A6,6,0,0,0,48,186.916Z"/><path d="M48,163.347a6,6,0,0,0-6,6v4.885a6,6,0,0,0,12,0v-4.885A6,6,0,0,0,48,163.347Z"/><path d="M220,133.173A19.806,19.806,0,1,0,200.2,113.368,19.827,19.827,0,0,0,220,133.173Zm0-27.611a7.806,7.806,0,1,1-7.805,7.806A7.814,7.814,0,0,1,220,105.562Z"/><path d="M114.808,221h50.6c3.314,0,5.593-2.676,5.593-5.99V181.861a31,31,0,1,0-62,0V215.01A5.831,5.831,0,0,0,114.808,221Zm25.3-58.3A18.96,18.96,0,0,1,158.44,176H121.775A18.962,18.962,0,0,1,140.107,162.7ZM121,188h38v21H121Z"/><path d="M125.5,264.945A22.551,22.551,0,0,0,103,287.616v57.952c0,3.314,2.455,6.432,5.768,6.432H142.11c3.314,0,5.89-3.118,5.89-6.432V287.616A22.551,22.551,0,0,0,125.5,264.945ZM136,340H115V287.616a10.5,10.5,0,1,1,21,0Z"/><path d="M275.575,221h50.6A5.845,5.845,0,0,0,332,215.01V181.861a31,31,0,1,0-62,0V215.01C270,218.324,272.262,221,275.575,221Zm25.3-58.3A18.962,18.962,0,0,1,319.208,176H282.542A18.962,18.962,0,0,1,300.875,162.7ZM282,188h38v21H282Z"/><path d="M298.872,352h33.343c3.313,0,5.785-3.118,5.785-6.432V287.616a22.5,22.5,0,1,0-45,0v57.952C293,348.882,295.559,352,298.872,352ZM305,287.616a10.5,10.5,0,1,1,21,0V340H305Z"/></svg>
