<svg id="Capa_1" enable-background="new 0 0 512 512" height="512" viewBox="0 0 512 512" width="512" xmlns="http://www.w3.org/2000/svg"><g><path d="m377 120h-242c-8.284 0-15 6.716-15 15v242c0 8.284 6.716 15 15 15h242c8.284 0 15-6.716 15-15v-242c0-8.284-6.716-15-15-15zm-15 60h-30v-30h30zm-182-30v30h-30v-30zm-30 170h45c8.284 0 15-6.716 15-15s-6.716-15-15-15h-45v-80h45c8.284 0 15-6.716 15-15v-45h92v45c0 8.284 6.716 15 15 15h45v62h-45c-8.284 0-15 6.716-15 15v75h-31v-106c0-8.284-6.716-15-15-15s-15 6.716-15 15v106h-91zm182 42v-60h30v60z"/><path d="m497 0h-60c-8.284 0-15 6.716-15 15v45h-377c-24.813 0-45 20.187-45 45v392c0 8.284 6.716 15 15 15h60c8.284 0 15-6.716 15-15v-45h377c24.813 0 45-20.187 45-45v-392c0-8.284-6.716-15-15-15zm-45 30h30v334.57c-9.002-3.191-14.842-2.57-30-2.57zm-392 452h-30v-334.57c8.971 3.181 14.779 2.57 30 2.57zm407-60h-377v-287c0-8.284-6.716-15-15-15h-30c-8.271 0-15-6.729-15-15s6.729-15 15-15h377v287c0 8.284 6.716 15 15 15h30c8.271 0 15 6.729 15 15s-6.729 15-15 15z"/></g></svg>