<svg id="Capa_1" enable-background="new 0 0 512 512" height="512" viewBox="0 0 512 512" width="512" xmlns="http://www.w3.org/2000/svg"><g><g><path d="m430.799 45.877h-172.403c-9.893 0-18.068 7.416-19.288 16.97h-25.103c-9.231 0-16.741 7.501-16.741 16.721v1.381h-26.346c-22.818 0-41.801 16.664-45.4 38.438h-118.018c-4.142 0-7.5 3.357-7.5 7.5s3.358 7.5 7.5 7.5h118.018c3.597 21.789 22.581 38.466 45.4 38.466h26.346v1.381c0 9.22 7.51 16.721 16.741 16.721h25.103c1.22 9.554 9.395 16.97 19.288 16.97h11.285c1.841 12.583 4.739 33.358-7.358 52.574-3.132 4.939-2.308 8.67-1.064 10.93 1.24 2.255 3.934 4.942 9.723 4.942h31.377l-8.804 88.941h-29.745c-27.862 0-50.53 22.612-50.53 50.406v37.589c0 7.067 5.755 12.817 12.829 12.817h192.36c7.074 0 12.829-5.75 12.829-12.817v-75.178c0-7.067-5.755-12.817-12.829-12.817h-20.789c.274-19.835 1.635-38.763 4.067-56.354.567-4.104-2.299-7.89-6.402-8.457-4.107-.565-7.889 2.3-8.456 6.402-2.525 18.263-3.932 37.882-4.208 58.409h-74.053l9.468-95.644c.002-.022.004-.043.006-.065l6.106-61.679h93.413c-10.606 19.169-18.66 40.679-24.48 65.363-.951 4.031 1.547 8.07 5.579 9.021.579.137 1.158.202 1.728.202 3.4 0 6.479-2.328 7.293-5.781 6.265-26.574 15.21-49.161 27.29-68.915 42.816-2.204 76.971-37.66 76.971-80.927-.002-44.669-36.429-81.01-81.203-81.01zm-259.881 111.975c-17.106 0-31.023-13.892-31.023-30.966 0-17.059 13.917-30.938 31.023-30.938h26.346v61.903h-26.346zm41.346 16.38v-8.881-76.903-8.881c0-.949.781-1.721 1.741-1.721h24.929v98.106h-24.929c-.944.001-1.741-.787-1.741-1.72zm204.033 276.891h-188.018v-35.406c0-19.523 15.939-35.406 35.53-35.406h10.812v15.354c0 14.191 15.531 27.553 27.569 27.553h114.106v27.905zm0-70.812v27.906h-114.106c-3.747 0-12.569-6.565-12.569-12.553v-15.354h10.716c.007 0 .013.001.02.001s.014-.001.021-.001h115.918zm-112.454-118.942h-24.889c9.823-20.417 7.674-40.827 5.882-53.446h24.297zm126.956-68.446h-30.569v-45.729c0-4.143-3.358-7.5-7.5-7.5s-7.5 3.357-7.5 7.5v45.729h-67.841c-.003 0-.006 0-.01 0h-58.983c-2.419 0-4.462-2.031-4.462-4.436v-5.034-113.106-5.034c0-2.404 2.043-4.436 4.462-4.436h126.834v51.754c0 4.143 3.358 7.5 7.5 7.5s7.5-3.357 7.5-7.5v-51.754h30.569c36.503 0 66.201 29.611 66.201 66.009 0 36.413-29.698 66.037-66.201 66.037z"/><path d="m425.328 108.638c-4.142 0-7.5 3.357-7.5 7.5v21.496c0 4.143 3.358 7.5 7.5 7.5s7.5-3.357 7.5-7.5v-21.496c0-4.143-3.358-7.5-7.5-7.5z"/><path d="m458.465 108.638c-4.142 0-7.5 3.357-7.5 7.5v21.496c0 4.143 3.358 7.5 7.5 7.5s7.5-3.357 7.5-7.5v-21.496c0-4.143-3.358-7.5-7.5-7.5z"/><path d="m332.465 79.449h-33.789c-14.264 0-25.869 11.587-25.869 25.828s11.604 25.827 25.869 25.827h33.789c14.249 0 25.84-11.586 25.84-25.827s-11.592-25.828-25.84-25.828zm0 36.655h-33.789c-5.993 0-10.869-4.857-10.869-10.827 0-5.971 4.875-10.828 10.869-10.828h33.789c5.978 0 10.84 4.857 10.84 10.828 0 5.97-4.863 10.827-10.84 10.827z"/></g></g></svg>