<svg id="Capa_1" enable-background="new 0 0 512 512" height="512" viewBox="0 0 512 512" width="512" xmlns="http://www.w3.org/2000/svg"><g><path d="m120.405 271.452h88.634v9.608c0 26.534-21.587 48.121-48.121 48.121h-25.513v30h25.513c43.076 0 78.121-35.045 78.121-78.121v-9.608-15-103.634h-118.634zm30-88.634h58.634v58.634h-58.634z"/><path d="m272.961 271.452h88.634v9.608c0 26.534-21.587 48.121-48.12 48.121h-25.514v30h25.514c43.075 0 78.12-35.045 78.12-78.121v-9.608-15-103.634h-118.634zm30-88.634h58.634v58.634h-58.634z"/><path d="m437.02 74.98c-48.353-48.351-112.64-74.98-181.02-74.98s-132.667 26.629-181.02 74.98c-48.351 48.353-74.98 112.64-74.98 181.02s26.629 132.667 74.98 181.02c48.353 48.351 112.64 74.98 181.02 74.98s132.667-26.629 181.02-74.98c48.351-48.353 74.98-112.64 74.98-181.02s-26.629-132.667-74.98-181.02zm-21.214 340.826c-42.686 42.686-99.439 66.194-159.806 66.194s-117.12-23.508-159.806-66.194-66.194-99.439-66.194-159.806 23.508-117.12 66.194-159.806 99.439-66.194 159.806-66.194 117.12 23.508 159.806 66.194 66.194 99.439 66.194 159.806-23.508 117.12-66.194 159.806z"/></g></svg>